<?xml version="1.0" encoding="UTF-8"?>
<svg width="160px" height="77px" viewBox="0 0 160 77" version="1.1" xmlns="http://www.w3.org/2000/svg" xmlns:xlink="http://www.w3.org/1999/xlink">
    <!-- Generator: Sketch 51.3 (57544) - http://www.bohemiancoding.com/sketch -->
    <title>ATS-72 Copy</title>
    <desc>Created with Sketch.</desc>
    <defs></defs>
    <g id="Page-1" stroke="none" stroke-width="1" fill="none" fill-rule="evenodd">
        <g id="ATS-Desktop-Home" transform="translate(-68.000000, -38.000000)" fill="#FEFEFE" fill-rule="nonzero">
            <g id="ATS-72-Copy" transform="translate(68.000000, 38.000000)">
                <g id="Group" transform="translate(80.000000, 38.500000) scale(-1, 1) rotate(-180.000000) translate(-80.000000, -38.500000) ">
                    <path d="M132.830189,76.4310345 C129.962264,75.9 129.924528,75.8241379 129.849057,70.6275862 C129.849057,68.9206897 129.698113,66.4931034 129.54717,65.1655172 L129.320755,62.7758621 L122.603774,63.0413793 C118.603774,63.1931034 115.811321,63.1551724 115.698113,62.9655172 C115.584906,62.737931 115.320755,61.5241379 115.132075,60.1965517 C114.377358,54.6586207 116.226415,49.5 120.641509,44.6827586 C122,43.2034483 126.45283,39.0310345 130.490566,35.4655172 C142.566038,24.8448276 143.396226,23.8586207 143.396226,20.0655172 C143.396226,18.0172414 142.528302,15.7793103 141.283019,14.6793103 C136.679245,10.6206897 125.584906,10.7724138 115.132075,15.0586207 C113.584906,15.7034483 112.226415,16.1586207 112.150943,16.0448276 C112.075472,15.9689655 112.188679,13.9586207 112.415094,11.6068966 C112.641509,9.21724138 112.830189,6.41034483 112.830189,5.34827586 C112.830189,4.2862069 113.056604,3.26206897 113.320755,3.03448276 C114.037736,2.42758621 123.433962,0.682758621 128.754717,0.227586207 C136.792453,-0.493103448 143.962264,0.531034483 149.358491,3.1862069 C154.566038,5.72758621 158.45283,10.5448276 159.622642,15.8931034 C160.264151,18.7758621 159.924528,23.4793103 158.90566,26.0965517 C157.245283,30.4586207 151.509434,36.3758621 137.433962,48.1724138 C132.339623,52.4206897 130.603774,55.9482759 131.886792,59.2862069 C132.679245,61.4103448 134.90566,63.3827586 137.698113,64.4448276 C139.396226,65.1275862 140.603774,65.2793103 143.773585,65.2793103 C148.037736,65.2793103 150.490566,64.9 155.433962,63.4206897 C157.132075,62.8896552 158.641509,62.5482759 158.754717,62.662069 C158.867925,62.7758621 158.716981,65.6206897 158.45283,69.0344828 L157.924528,75.2172414 L153.962264,75.9 C148.830189,76.7344828 136.264151,77.0758621 132.830189,76.4310345 Z" id="Shape"></path>
                    <path d="M34.5660377,68.3137931 C29.7358491,58.5655172 8.11320755,16.7655172 3.54716981,8.38275862 C1.58490566,4.81724138 0,1.78275862 0,1.66896552 C0,1.55517241 4.03773585,1.44137931 8.98113208,1.44137931 L17.9622642,1.44137931 L21.245283,8.53448276 C23.0188679,12.4793103 25.7735849,18.3586207 27.3207547,21.6206897 L30.1886792,27.6137931 L44.5283019,27.6137931 L58.8679245,27.6137931 L59.3962264,26.4 C59.6603774,25.7172414 61.6603774,19.837931 63.8113208,13.3137931 L67.7358491,1.47931034 L76.490566,1.44137931 L85.2830189,1.44137931 L84.490566,3.45172414 C82.5660377,8.26896552 65.0566038,56.4413793 61.8490566,65.6586207 L58.3396226,75.7862069 L48.3396226,75.7862069 L38.3018868,75.7862069 L34.5660377,68.3137931 Z M51.6981132,51.5482759 C53.9622642,44.7965517 55.8490566,39.2206897 55.8490566,39.1448276 C55.8490566,39.0689655 51.2830189,38.9931034 45.6603774,38.9931034 C38.754717,38.9931034 35.4716981,39.1068966 35.4716981,39.4103448 C35.4716981,40.0551724 47.1698113,64.1793103 47.3962264,63.9517241 C47.4716981,63.8758621 49.3962264,58.262069 51.6981132,51.5482759 Z" id="Shape"></path>
                    <path d="M66.6037736,75.3310345 C66.5283019,75.0655172 66.4150943,72.3724138 66.3018868,69.3758621 L66.1886792,63.9137931 L77.6603774,64.1793103 L89.1698113,64.4448276 L88.9056604,55.037931 C88.4528302,39.2586207 86.9433962,10.2793103 86.1886792,3.45172414 L86,1.44137931 L94.6792453,1.44137931 L103.396226,1.44137931 L103.396226,9.33103448 C103.396226,19.2689655 104.981132,59.8172414 105.509434,63.2310345 L105.698113,64.4827586 L117.207547,64.2172414 L128.679245,63.9517241 L128.679245,67.2896552 C128.679245,69.1482759 128.792453,71.8034483 128.943396,73.2448276 L129.169811,75.7862069 L97.9622642,75.7862069 C73.3584906,75.7862069 66.754717,75.6724138 66.6037736,75.3310345 Z" id="Shape"></path>
                </g>
            </g>
        </g>
    </g>
</svg>