<?xml version="1.0" encoding="UTF-8"?>
<svg width="32px" height="32px" viewBox="0 0 32 32" version="1.1" xmlns="http://www.w3.org/2000/svg" xmlns:xlink="http://www.w3.org/1999/xlink">
    <!-- Generator: Sketch 51.3 (57544) - http://www.bohemiancoding.com/sketch -->
    <title>iconfinder_Fullscreen_1063900</title>
    <desc>Created with Sketch.</desc>
    <defs></defs>
    <g id="Page-1" stroke="none" stroke-width="1" fill="none" fill-rule="evenodd">
        <g id="iconfinder_Fullscreen_1063900" fill-rule="nonzero">
            <path d="M31,18 C30.491,18 30,18.438 30,19 L30,30 L2,30 L2,2 L13,2 C13.531,2 14,1.531 14,1 C14,0.469 13.5,0 13,0 L2,0 C0.895,0 0,0.895 0,2 L0,30 C0,31.105 0.895,32 2,32 L30,32 C31.105,32 32,31.105 32,30 L32,18.985 C32,18.431 31.594,18 31,18 Z" id="Shape" fill="#D1BA90"></path>
            <path d="M31,0 L21,0 C20.448,0 20,0.448 20,1 C20,1.552 20.448,2 21,2 L28.596,2 L8.282,22.313 C7.894,22.701 7.894,23.33 8.282,23.718 C8.67,24.106 9.299,24.106 9.686,23.718 L30,3.404 L30,11 C30,11.552 30.448,12 31,12 C31.552,12 32,11.552 32,11 L32,1 C32,0.462 31.538,0 31,0 Z" id="Shape" fill="#FAFAFA"></path>
        </g>
    </g>
</svg>