<?xml version="1.0" encoding="UTF-8"?>
<svg width="60px" height="60px" viewBox="0 0 60 60" version="1.1" xmlns="http://www.w3.org/2000/svg" xmlns:xlink="http://www.w3.org/1999/xlink">
    <!-- Generator: Sketch 51.3 (57544) - http://www.bohemiancoding.com/sketch -->
    <title>iconfinder_Earth_728931</title>
    <desc>Created with Sketch.</desc>
    <defs></defs>
    <g id="Page-1" stroke="none" stroke-width="1" fill="none" fill-rule="evenodd">
        <g id="ATS-Desktop-Home" transform="translate(-538.000000, -2698.000000)" fill-rule="nonzero">
            <g id="Group-18" transform="translate(75.000000, 2584.000000)">
                <g id="Group-9" transform="translate(463.000000, 114.000000)">
                    <g id="iconfinder_Earth_728931">
                        <path d="M59.66,28 C58.199,23.254 51.66,19.285 42.6755,17.324 C40.715,8.34 36.746,1.801 32,0.34 L32,0 L28,0 L28,0.34 C23.254,1.801 19.285,8.34 17.324,17.3245 C8.34,19.285 1.801,23.254 0.34,28 L0,28 L0,32 L0.34,32 C1.801,36.746 8.34,40.715 17.3245,42.676 C19.285,51.66 23.254,58.199 28,59.66 L28,60 L32,60 L32,59.66 C36.746,58.199 40.715,51.66 42.676,42.6755 C51.66,40.715 58.199,36.746 59.66,32 L60,32 L60,28 L59.66,28 Z M4.7385,32 L16.047,32 C16.1175,34.207 16.289,36.3475 16.5665,38.3985 C10.461,36.824 6.3205,34.328 4.7385,32 Z M16.047,28 L4.7385,28 C6.3205,25.672 10.461,23.176 16.5665,21.6015 C16.289,23.6525 16.117,25.793 16.047,28 Z M28,55.2615 C25.672,53.6795 23.176,49.539 21.6015,43.4335 C23.6525,43.711 25.793,43.8825 28,43.953 L28,55.2615 Z M28,39.953 C25.4025,39.871 22.9765,39.629 20.7385,39.2615 C20.3715,37.023 20.129,34.5975 20.047,32 L28,32 L28,39.953 Z M28,28 L20.047,28 C20.129,25.4025 20.371,22.9765 20.7385,20.7385 C22.977,20.3715 25.4025,20.129 28,20.047 L28,28 Z M28,16.047 C25.793,16.1175 23.6525,16.289 21.6015,16.5665 C23.176,10.461 25.672,6.3205 28,4.7385 L28,16.047 Z M32,4.7385 C34.328,6.3205 36.824,10.461 38.3985,16.5665 C36.3475,16.289 34.207,16.1175 32,16.047 L32,4.7385 Z M32,55.2615 L32,43.953 C34.207,43.8825 36.3475,43.711 38.3985,43.4335 C36.824,49.539 34.328,53.6795 32,55.2615 Z M39.2615,39.2615 C37.023,39.6285 34.5975,39.871 32,39.953 L32,32 L39.953,32 C39.871,34.5975 39.629,37.0235 39.2615,39.2615 Z M32,28 L32,20.047 C34.5975,20.129 37.0235,20.371 39.2615,20.7385 C39.6285,22.977 39.871,25.4025 39.953,28 L32,28 Z M43.4335,38.3985 C43.711,36.3475 43.8825,34.207 43.953,32 L55.2615,32 C53.6795,34.328 49.539,36.824 43.4335,38.3985 Z M43.953,28 C43.8825,25.793 43.711,23.6525 43.4335,21.6015 C49.539,23.1755 53.6795,25.672 55.2615,28 L43.953,28 Z" id="Shape" fill="#B0BEC5"></path>
                        <path d="M30,4 C44.336,4 56,15.664 56,30 C56,44.336 44.336,56 30,56 C15.664,56 4,44.336 4,30 C4,15.664 15.664,4 30,4 Z M30,0 C13.4335,0 0,13.4335 0,30 C0,46.5665 13.4335,60 30,60 C46.5665,60 60,46.5665 60,30 C60,13.4335 46.5665,0 30,0 Z" id="Shape" fill="#D0B98F"></path>
                    </g>
                </g>
            </g>
        </g>
    </g>
</svg>