<?xml version="1.0" encoding="UTF-8"?>
<svg width="60px" height="60px" viewBox="0 0 60 60" version="1.1" xmlns="http://www.w3.org/2000/svg" xmlns:xlink="http://www.w3.org/1999/xlink">
    <!-- Generator: Sketch 51.3 (57544) - http://www.bohemiancoding.com/sketch -->
    <title>iconfinder_Application_728900</title>
    <desc>Created with Sketch.</desc>
    <defs></defs>
    <g id="Page-1" stroke="none" stroke-width="1" fill="none" fill-rule="evenodd">
        <g id="ATS-Desktop-Home" transform="translate(-75.000000, -2698.000000)" fill-rule="nonzero">
            <g id="Group-18" transform="translate(75.000000, 2584.000000)">
                <g id="Group-8" transform="translate(0.000000, 114.000000)">
                    <g id="iconfinder_Application_728900">
                        <path d="M26.2857143,19.047619 L11.4285714,19.047619 L11.4285714,33.8095238 L26.2857143,33.8095238 L26.2857143,19.047619 Z M11.4285714,41.1904762 L48.5714286,41.1904762 L48.5714286,37.5 L11.4285714,37.5 L11.4285714,41.1904762 Z M11.4285714,48.5714286 L48.5714286,48.5714286 L48.5714286,44.8809524 L11.4285714,44.8809524 L11.4285714,48.5714286 Z M30,19.047619 L30,22.7380952 L48.5714286,22.7380952 L48.5714286,19.047619 L30,19.047619 Z M30,30.1190476 L48.5714286,30.1190476 L48.5714286,26.4285714 L30,26.4285714 L30,30.1190476 Z" id="Shape" fill="#B0BEC5"></path>
                        <path d="M56.25,0 L3.75,0 C1.6828125,0 0,1.6828125 0,3.75 L0,56.25 C0,58.3171875 1.6828125,60 3.75,60 L56.25,60 C58.3171875,60 60,58.3171875 60,56.25 L60,3.75 C60,1.6828125 58.3171875,0 56.25,0 Z M46.875,3.75 C47.9114062,3.75 48.75,4.58859375 48.75,5.625 C48.75,6.66140625 47.9114062,7.5 46.875,7.5 C45.8385938,7.5 45,6.66140625 45,5.625 C45,4.58859375 45.8385938,3.75 46.875,3.75 Z M13.125,3.75 L39.375,3.75 C40.4114062,3.75 41.25,4.58859375 41.25,5.625 C41.25,6.66140625 40.4114062,7.5 39.375,7.5 L13.125,7.5 C12.0885938,7.5 11.25,6.66140625 11.25,5.625 C11.25,4.58859375 12.0885938,3.75 13.125,3.75 Z M5.625,3.75 C6.66140625,3.75 7.5,4.58859375 7.5,5.625 C7.5,6.66140625 6.66140625,7.5 5.625,7.5 C4.58859375,7.5 3.75,6.66140625 3.75,5.625 C3.75,4.58859375 4.58859375,3.75 5.625,3.75 Z M56.25,52.5 C56.25,54.5671875 54.5671875,56.25 52.5,56.25 L7.5,56.25 C5.4328125,56.25 3.75,54.5671875 3.75,52.5 L3.75,15 C3.75,12.9328125 5.4328125,11.25 7.5,11.25 L52.5,11.25 C54.5671875,11.25 56.25,12.9328125 56.25,15 L56.25,52.5 Z M54.375,7.5 C53.3385938,7.5 52.5,6.66140625 52.5,5.625 C52.5,4.58859375 53.3385938,3.75 54.375,3.75 C55.4114063,3.75 56.25,4.58859375 56.25,5.625 C56.25,6.66140625 55.4114063,7.5 54.375,7.5 Z" id="Shape" fill="#D0B98F"></path>
                    </g>
                </g>
            </g>
        </g>
    </g>
</svg>