<?xml version="1.0" encoding="UTF-8"?>
<svg width="60px" height="65px" viewBox="0 0 60 65" version="1.1" xmlns="http://www.w3.org/2000/svg" xmlns:xlink="http://www.w3.org/1999/xlink">
    <!-- Generator: Sketch 51.3 (57544) - http://www.bohemiancoding.com/sketch -->
    <title>iconfinder_City_728922</title>
    <desc>Created with Sketch.</desc>
    <defs></defs>
    <g id="Page-1" stroke="none" stroke-width="1" fill="none" fill-rule="evenodd">
        <g id="ATS-Desktop-Home" transform="translate(-969.000000, -2694.000000)">
            <g id="Group-18" transform="translate(75.000000, 2584.000000)">
                <g id="Group-11" transform="translate(894.000000, 110.000000)">
                    <g id="iconfinder_City_728922">
                        <path d="M8.42105263,24.5614035 L12.4561404,24.5614035 L12.4561404,20.5263158 L8.42105263,20.5263158 L8.42105263,24.5614035 Z M24.5614035,20.5263158 L28.5964912,20.5263158 L28.5964912,16.4912281 L24.5614035,16.4912281 L24.5614035,20.5263158 Z M32.6315789,20.5263158 L36.6666667,20.5263158 L36.6666667,16.4912281 L32.6315789,16.4912281 L32.6315789,20.5263158 Z M40.7017544,20.5263158 L44.7368421,20.5263158 L44.7368421,16.4912281 L40.7017544,16.4912281 L40.7017544,20.5263158 Z M24.5614035,12.4561404 L28.5964912,12.4561404 L28.5964912,8.42105263 L24.5614035,8.42105263 L24.5614035,12.4561404 Z M32.6315789,12.4561404 L36.6666667,12.4561404 L36.6666667,8.42105263 L32.6315789,8.42105263 L32.6315789,12.4561404 Z M40.7017544,12.4561404 L44.7368421,12.4561404 L44.7368421,8.42105263 L40.7017544,8.42105263 L40.7017544,12.4561404 Z M24.5614035,36.6666667 L28.5964912,36.6666667 L28.5964912,32.6315789 L24.5614035,32.6315789 L24.5614035,36.6666667 Z M32.6315789,36.6666667 L36.6666667,36.6666667 L36.6666667,32.6315789 L32.6315789,32.6315789 L32.6315789,36.6666667 Z M40.7017544,36.6666667 L44.7368421,36.6666667 L44.7368421,32.6315789 L40.7017544,32.6315789 L40.7017544,36.6666667 Z M24.5614035,44.7368421 L28.5964912,44.7368421 L28.5964912,40.7017544 L24.5614035,40.7017544 L24.5614035,44.7368421 Z M40.7017544,44.7368421 L44.7368421,44.7368421 L44.7368421,40.7017544 L40.7017544,40.7017544 L40.7017544,44.7368421 Z M24.5614035,52.8070175 L28.5964912,52.8070175 L28.5964912,48.7719298 L24.5614035,48.7719298 L24.5614035,52.8070175 Z M40.7017544,52.8070175 L44.7368421,52.8070175 L44.7368421,48.7719298 L40.7017544,48.7719298 L40.7017544,52.8070175 Z M52.8070175,48.7719298 L56.8421053,48.7719298 L56.8421053,44.7368421 L52.8070175,44.7368421 L52.8070175,48.7719298 Z M52.8070175,36.6666667 L52.8070175,40.7017544 L56.8421053,40.7017544 L56.8421053,36.6666667 L52.8070175,36.6666667 Z M52.8070175,56.8421053 L56.8421053,56.8421053 L56.8421053,52.8070175 L52.8070175,52.8070175 L52.8070175,56.8421053 Z M24.5614035,28.5964912 L28.5964912,28.5964912 L28.5964912,24.5614035 L24.5614035,24.5614035 L24.5614035,28.5964912 Z M32.6315789,28.5964912 L36.6666667,28.5964912 L36.6666667,24.5614035 L32.6315789,24.5614035 L32.6315789,28.5964912 Z M40.7017544,28.5964912 L44.7368421,28.5964912 L44.7368421,24.5614035 L40.7017544,24.5614035 L40.7017544,28.5964912 Z M8.42105263,32.6315789 L12.4561404,32.6315789 L12.4561404,28.5964912 L8.42105263,28.5964912 L8.42105263,32.6315789 Z M8.42105263,40.7017544 L12.4561404,40.7017544 L12.4561404,36.6666667 L8.42105263,36.6666667 L8.42105263,40.7017544 Z M8.42105263,48.7719298 L12.4561404,48.7719298 L12.4561404,44.7368421 L8.42105263,44.7368421 L8.42105263,48.7719298 Z M8.42105263,56.8421053 L12.4561404,56.8421053 L12.4561404,52.8070175 L8.42105263,52.8070175 L8.42105263,56.8421053 Z M32.6315789,44.7368421 L36.6666667,44.7368421 L36.6666667,40.7017544 L32.6315789,40.7017544 L32.6315789,44.7368421 Z" id="Shape" fill="#B0BEC5" fill-rule="nonzero"></path>
                        <path d="M60,60.1973684 C60,62.4156414 58.211,64.2105263 56,64.2105263 L4,64.2105263 C1.789,64.2105263 0,62.4156414 0,60.1973684 L0,16.0526316 C0,13.8343586 1.789,12.0394737 4,12.0394737 L16,12.0394737 L16,4.01315789 C16,1.79488487 17.789,0 20,0 L48,0 C50.211,0 52,1.79488487 52,4.01315789 L52,28.0921053 L56,28.0921053 C58.211,28.0921053 60,29.8869901 60,32.1052632 L60,60.1973684 Z M16,16.0526316 L4,16.0526316 L4,60.1973684 L16,60.1973684 L16,16.0526316 Z M48,4.01315789 L20,4.01315789 L20,60.1973684 L32,60.1973684 L32,48.1578947 L36,48.1578947 L36,60.1973684 L48,60.1973684 L48,4.01315789 Z M56,32.1052632 L52,32.1052632 L52,60.1973684 L56,60.1973684 L56,32.1052632 Z" id="Shape" fill="#D0B98F"></path>
                    </g>
                </g>
            </g>
        </g>
    </g>
</svg>